<svg width="130" height="208" viewBox="0 0 130 208" fill="none" xmlns="http://www.w3.org/2000/svg">
<path d="M65 0L65 50" stroke="white"/>
<mask id="path-2-inside-1_789_18" fill="white">
<path fill-rule="evenodd" clip-rule="evenodd" d="M69 85.3172C73.6608 83.6698 77 79.2249 77 74C77 67.3726 71.6274 62 65 62C58.3726 62 53 67.3726 53 74C53 79.2249 56.3392 83.6698 61 85.3172V92C61 94.2091 62.7909 96 65 96C67.2091 96 69 94.2091 69 92V85.3172Z"/>
</mask>
<path d="M69 85.3172L68.6668 84.3743L68 84.61V85.3172H69ZM61 85.3172H62V84.61L61.3332 84.3743L61 85.3172ZM76 74C76 78.7879 72.9405 82.8638 68.6668 84.3743L69.3332 86.26C74.3811 84.4759 78 79.6618 78 74H76ZM65 63C71.0751 63 76 67.9249 76 74H78C78 66.8203 72.1797 61 65 61V63ZM54 74C54 67.9249 58.9249 63 65 63V61C57.8203 61 52 66.8203 52 74H54ZM61.3332 84.3743C57.0595 82.8638 54 78.7879 54 74H52C52 79.6618 55.6189 84.4759 60.6668 86.26L61.3332 84.3743ZM62 92V85.3172H60V92H62ZM65 95C63.3431 95 62 93.6569 62 92H60C60 94.7614 62.2386 97 65 97V95ZM68 92C68 93.6569 66.6569 95 65 95V97C67.7614 97 70 94.7614 70 92H68ZM68 85.3172V92H70V85.3172H68Z" fill="white" mask="url(#path-2-inside-1_789_18)"/>
<path d="M65 108V208" stroke="white"/>
<path d="M97 58L97 208" stroke="white"/>
<path d="M33 58L33 208" stroke="white"/>
<path d="M129 33L129 208" stroke="white"/>
<path d="M1 33L0.999992 208" stroke="white"/>
</svg>
