<svg width="25" height="161" viewBox="0 0 25 161" fill="none" xmlns="http://www.w3.org/2000/svg">
<g clip-path="url(#clip0_2_357)">
<path d="M14.8061 13.3434C14.238 8.89562 13.4692 4.44781 12.4332 -5.4347e-07L0 0L5.8326e-07 13.3434L14.8061 13.3434Z" fill="white"/>
<path d="M25 26.8304L25 13.4869L14.9733 13.4869C15.5247 17.9347 15.8757 22.3826 16.0428 26.8304L25 26.8304Z" fill="white"/>
<path d="M15.9425 40.1738C16.0762 35.7259 16.0762 31.2781 15.8924 26.8303L0 26.8303L5.8326e-07 40.1738L15.9425 40.1738Z" fill="white"/>
<path d="M25 53.6607L25 40.3173L16.093 40.3173C15.9593 44.7651 15.7086 49.2129 15.3577 53.6607L25 53.6607Z" fill="white"/>
<path d="M13.9539 67.0041C14.4218 62.5563 14.8563 58.1085 15.2072 53.6606L0 53.6606L5.8326e-07 67.0041L13.9539 67.0041Z" fill="white"/>
<path d="M24.9999 80.509L24.9999 67.1655L14.0875 67.1655C13.6196 71.6133 13.1015 76.0611 12.5835 80.509L25.0166 80.509L24.9999 80.509Z" fill="white"/>
<path d="M10.9124 93.8345C11.3803 89.3867 11.8984 84.9389 12.4164 80.4911L0 80.4911L5.8326e-07 93.8345L10.9124 93.8345Z" fill="white"/>
<path d="M24.9999 107.339L24.9999 93.9958L11.0461 93.9958C10.5782 98.4437 10.1437 102.891 9.79273 107.339L24.9999 107.339Z" fill="white"/>
<path d="M8.90708 120.665C9.04077 116.217 9.29144 111.769 9.64238 107.321L0 107.321L5.8326e-07 120.665L8.90708 120.665Z" fill="white"/>
<path d="M25 134.17L25 120.826L9.05751 120.826C8.92383 125.274 8.92382 129.722 9.10765 134.17L25 134.17Z" fill="white"/>
<path d="M10.0267 147.513C9.47526 143.065 9.12433 138.617 8.95722 134.17L0 134.17L5.8326e-07 147.513L10.0267 147.513Z" fill="white"/>
<path d="M25 161L25 147.657L10.1938 147.657C10.762 152.104 11.5307 156.552 12.5668 161L25 161Z" fill="white"/>
</g>
<defs>
<clipPath id="clip0_2_357">
<rect width="161" height="25" fill="white" transform="matrix(4.37114e-08 1 1 -4.37114e-08 0 0)"/>
</clipPath>
</defs>
</svg>
