<svg width="25" height="161" viewBox="0 0 25 161" fill="none" xmlns="http://www.w3.org/2000/svg">
<g clip-path="url(#clip0_2_344)">
<path d="M10.1939 13.3434C10.762 8.89562 11.5308 4.44781 12.5668 -5.4347e-07L25 0L25 13.3434L10.1939 13.3434Z" fill="white"/>
<path d="M0.00011958 26.8304L0.000120163 13.4869L10.0269 13.4869C9.47538 17.9347 9.12445 22.3826 8.95734 26.8304L0.00011958 26.8304Z" fill="white"/>
<path d="M9.05749 40.1738C8.9238 35.7259 8.9238 31.2781 9.10763 26.8303L25 26.8303L25 40.1738L9.05749 40.1738Z" fill="white"/>
<path d="M-4.34986e-05 53.6607L-4.29153e-05 40.3173L8.90704 40.3173C9.04073 44.7651 9.2914 49.2129 9.64233 53.6607L-4.34986e-05 53.6607Z" fill="white"/>
<path d="M11.0461 67.0041C10.5782 62.5563 10.1437 58.1085 9.79278 53.6606L25 53.6606L25 67.0041L11.0461 67.0041Z" fill="white"/>
<path d="M6.42666e-05 80.509L6.48499e-05 67.1655L10.9125 67.1655C11.3804 71.6133 11.8985 76.0611 12.4165 80.509L-0.0166479 80.509L6.42666e-05 80.509Z" fill="white"/>
<path d="M14.0876 93.8345C13.6197 89.3867 13.1016 84.9389 12.5836 80.4911L25 80.4911L25 93.8345L14.0876 93.8345Z" fill="white"/>
<path d="M5.85445e-05 107.339L5.91278e-05 93.9958L13.9539 93.9958C14.4218 98.4437 14.8563 102.891 15.2073 107.339L5.85445e-05 107.339Z" fill="white"/>
<path d="M16.0929 120.665C15.9592 116.217 15.7086 111.769 15.3576 107.321L25 107.321L25 120.665L16.0929 120.665Z" fill="white"/>
<path d="M9.85989e-05 134.17L9.91821e-05 120.826L15.9426 120.826C16.0763 125.274 16.0763 129.722 15.8925 134.17L9.85989e-05 134.17Z" fill="white"/>
<path d="M14.9733 147.513C15.5247 143.065 15.8757 138.617 16.0428 134.17L25 134.17L25 147.513L14.9733 147.513Z" fill="white"/>
<path d="M6.09246e-06 161L6.67572e-06 147.657L14.8062 147.657C14.238 152.104 13.4693 156.552 12.4332 161L6.09246e-06 161Z" fill="white"/>
</g>
<defs>
<clipPath id="clip0_2_344">
<rect width="161" height="25" fill="white" transform="translate(25) rotate(90)"/>
</clipPath>
</defs>
</svg>
