<svg width="124" height="124" viewBox="0 0 124 124" fill="none" xmlns="http://www.w3.org/2000/svg">
<g clip-path="url(#clip0_2_299)">
<path d="M40.5817 83.418C8.83207 51.6684 -7.31407 16.3382 4.51831 4.50581C16.3507 -7.32656 51.6809 8.81957 83.4305 40.5692C115.18 72.3188 131.326 107.649 119.494 119.481C107.662 131.314 72.3313 115.168 40.5817 83.418Z" stroke="#3E3232" stroke-miterlimit="10"/>
<path d="M38.6939 85.3041C10.1613 56.7716 -4.34525 25.0178 6.29248 14.3801C16.9302 3.74235 48.684 18.2489 77.2165 46.7815C105.749 75.314 120.256 107.068 109.618 117.706C98.9802 128.343 67.2264 113.837 38.6939 85.3041Z" stroke="#3E3232" stroke-miterlimit="10"/>
<path d="M36.8331 87.1685C11.5127 61.8481 -1.3624 33.6708 8.07574 24.2326C17.5139 14.7945 45.6913 27.6696 71.0117 52.99C96.332 78.3104 109.207 106.488 99.769 115.926C90.3309 125.364 62.1535 112.489 36.8331 87.1685Z" stroke="#3E3232" stroke-miterlimit="10"/>
<path d="M34.9723 89.0329C12.869 66.9296 1.62937 42.3327 9.86791 34.0941C18.1065 25.8556 42.7034 37.0952 64.8067 59.1985C86.91 81.3018 98.1496 105.899 89.911 114.137C81.6725 122.376 57.0756 111.136 34.9723 89.0329Z" stroke="#3E3232" stroke-miterlimit="10"/>
<path d="M33.0988 90.8973C14.2076 72.0061 4.59952 50.9856 11.6385 43.9466C18.6774 36.9077 39.6979 46.5158 58.5891 65.407C77.4802 84.2981 87.0884 105.319 80.0494 112.358C73.0105 119.397 51.99 109.788 33.0988 90.8973Z" stroke="#3E3232" stroke-miterlimit="10"/>
<path d="M13.4167 53.8065C7.5778 59.6454 15.5491 77.0986 31.2253 92.7747C46.9014 108.451 64.3419 116.422 70.1934 110.583C76.0323 104.744 68.061 87.2912 52.3849 71.6151C36.7087 55.939 19.2683 47.9676 13.4167 53.8065Z" stroke="#3E3232" stroke-miterlimit="10"/>
<path d="M15.2065 63.6691C10.5608 68.3148 16.8947 82.1885 29.3594 94.6406C41.8242 107.093 55.6852 113.439 60.3309 108.794C64.9766 104.148 58.6427 90.2741 46.1779 77.8221C33.7132 65.3573 19.8522 59.0234 15.2065 63.6691Z" stroke="#3E3232" stroke-miterlimit="10"/>
</g>
<defs>
<clipPath id="clip0_2_299">
<rect width="124" height="124" fill="white" transform="matrix(-1 0 0 1 124 0)"/>
</clipPath>
</defs>
</svg>
