<svg width="124" height="124" viewBox="0 0 124 124" fill="none" xmlns="http://www.w3.org/2000/svg">
<g clip-path="url(#clip0_2_312)">
<path d="M83.4183 40.582C115.168 72.3316 131.314 107.662 119.482 119.494C107.649 131.327 72.3191 115.18 40.5695 83.4308C8.81983 51.6812 -7.32629 16.351 4.50608 4.51858C16.3385 -7.3138 51.6687 8.83234 83.4183 40.582Z" stroke="white" stroke-miterlimit="10"/>
<path d="M85.3061 38.6959C113.839 67.2284 128.345 98.9822 117.708 109.62C107.07 120.258 75.316 105.751 46.7834 77.2185C18.2509 48.686 3.74432 16.9322 14.3821 6.29446C25.0198 -4.34328 56.7736 10.1633 85.3061 38.6959Z" stroke="white" stroke-miterlimit="10"/>
<path d="M87.1669 36.8316C112.487 62.152 125.362 90.3293 115.924 99.7675C106.486 109.206 78.3087 96.3305 52.9883 71.0101C27.668 45.6897 14.7929 17.5123 24.231 8.07418C33.6691 -1.36396 61.8465 11.5112 87.1669 36.8316Z" stroke="white" stroke-miterlimit="10"/>
<path d="M89.0277 34.9672C111.131 57.0705 122.371 81.6674 114.132 89.906C105.894 98.1445 81.2966 86.9049 59.1933 64.8016C37.09 42.6983 25.8504 18.1014 34.089 9.86282C42.3275 1.62428 66.9244 12.8639 89.0277 34.9672Z" stroke="white" stroke-miterlimit="10"/>
<path d="M90.9012 33.1028C109.792 51.9939 119.4 73.0144 112.362 80.0534C105.323 87.0923 84.3021 77.4842 65.4109 58.593C46.5198 39.7019 36.9116 18.6814 43.9506 11.6424C50.9895 4.60348 72.0101 14.2116 90.9012 33.1028Z" stroke="white" stroke-miterlimit="10"/>
<path d="M110.583 70.1934C116.422 64.3546 108.451 46.9014 92.7747 31.2253C77.0986 15.5492 59.6582 7.5778 53.8066 13.4167C47.9677 19.2556 55.939 36.7087 71.6152 52.3849C87.2913 68.061 104.732 76.0323 110.583 70.1934Z" stroke="white" stroke-miterlimit="10"/>
<path d="M108.794 60.3309C113.439 55.6852 107.105 41.8115 94.6406 29.3594C82.1758 16.9074 68.3149 10.5608 63.6691 15.2065C59.0234 19.8522 65.3573 33.7259 77.8221 46.1779C90.2868 58.6427 104.148 64.9766 108.794 60.3309Z" stroke="white" stroke-miterlimit="10"/>
</g>
<defs>
<clipPath id="clip0_2_312">
<rect width="124" height="124" fill="white" transform="matrix(1 1.74846e-07 1.74846e-07 -1 0 124)"/>
</clipPath>
</defs>
</svg>
