<svg width="25" height="24" viewBox="0 0 25 24" fill="none" xmlns="http://www.w3.org/2000/svg">
<path d="M11.6403 13.4112C11.6403 14.9368 11.0822 16.2577 9.96591 17.374C8.88684 18.453 7.58452 18.9926 6.05893 18.9926C4.57056 18.9926 3.26824 18.4158 2.15196 17.2623C1.03568 16.1088 0.477539 14.6949 0.477539 13.0205C0.477539 10.8995 1.1101 9.09489 2.37521 7.60652C3.64033 6.08094 5.33335 5.1321 7.45428 4.76001V7.99722C8.68219 8.29489 9.68684 8.94606 10.4682 9.95071C11.2496 10.9554 11.6403 12.1088 11.6403 13.4112ZM24.4775 13.4112C24.4775 14.9368 23.9194 16.2577 22.8031 17.374C21.7241 18.453 20.4217 18.9926 18.8961 18.9926C17.4078 18.9926 16.1054 18.4158 14.9892 17.2623C13.8729 16.1088 13.3147 14.6949 13.3147 13.0205C13.3147 10.8995 13.9473 9.09489 15.2124 7.60652C16.4775 6.08094 18.1706 5.1321 20.2915 4.76001V7.99722C21.5194 8.29489 22.5241 8.94606 23.3054 9.95071C24.0868 10.9554 24.4775 12.1088 24.4775 13.4112Z" fill="white"/>
</svg>
